<svg xmlns="http://www.w3.org/2000/svg" viewBox="0 0 460 86" role="img">
  <style>
    text {
      fill: #57606a;
      font: 500 11px -apple-system, BlinkMacSystemFont, "Segoe UI", sans-serif;
    }
    @media (prefers-color-scheme: dark) {
      text { fill: #8c959f; }
    }
  </style>
  <defs>
    <!-- Brand marks sourced from Simple Icons (CC0-1.0). -->
    <symbol id="python" viewBox="0 0 24 24">
    <path d="M14.25.18l.9.2.73.26.59.3.45.32.34.34.25.34.16.33.1.3.04.26.02.2-.01.13V8.5l-.05.63-.13.55-.21.46-.26.38-.3.31-.33.25-.35.19-.35.14-.33.1-.3.07-.26.04-.21.02H8.77l-.69.05-.59.14-.5.22-.41.27-.33.32-.27.35-.2.36-.15.37-.1.35-.07.32-.04.27-.02.21v3.06H3.17l-.21-.03-.28-.07-.32-.12-.35-.18-.36-.26-.36-.36-.35-.46-.32-.59-.28-.73-.21-.88-.14-1.05-.05-1.23.06-1.22.16-1.04.24-.87.32-.71.36-.57.4-.44.42-.33.42-.24.4-.16.36-.1.32-.05.24-.01h.16l.06.01h8.16v-.83H6.18l-.01-2.75-.02-.37.05-.34.11-.31.17-.28.25-.26.31-.23.38-.2.44-.18.51-.15.58-.12.64-.1.71-.06.77-.04.84-.02 1.27.05zm-6.3 1.98l-.23.33-.08.41.08.41.23.34.33.22.41.09.41-.09.33-.22.23-.34.08-.41-.08-.41-.23-.33-.33-.22-.41-.09-.41.09zm13.09 3.95l.28.06.32.12.35.18.36.27.36.35.35.47.32.59.28.73.21.88.14 1.04.05 1.23-.06 1.23-.16 1.04-.24.86-.32.71-.36.57-.4.45-.42.33-.42.24-.4.16-.36.09-.32.05-.24.02-.16-.01h-8.22v.82h5.84l.01 2.76.02.36-.05.34-.11.31-.17.29-.25.25-.31.24-.38.2-.44.17-.51.15-.58.13-.64.09-.71.07-.77.04-.84.01-1.27-.04-1.07-.14-.9-.2-.73-.25-.59-.3-.45-.33-.34-.34-.25-.34-.16-.33-.1-.3-.04-.25-.02-.2.01-.13v-5.34l.05-.64.13-.54.21-.46.26-.38.3-.32.33-.24.35-.2.35-.14.33-.1.3-.06.26-.04.21-.02.13-.01h5.84l.69-.05.59-.14.5-.21.41-.28.33-.32.27-.35.2-.36.15-.36.1-.35.07-.32.04-.28.02-.21V6.07h2.09l.14.01zm-6.47 14.25l-.23.33-.08.41.08.41.23.33.33.23.41.08.41-.08.33-.23.23-.33.08-.41-.08-.41-.23-.33-.33-.23-.41-.08-.41.08z" />
  </symbol>
    <symbol id="prefect" viewBox="0 0 24 24">
    <path d="M12 8.003 4.288 4.002 12 0l7.713 4v8.004L12 16v8l-7.71-4v-8L12 16V8.003Z" />
  </symbol>
    <symbol id="databricks" viewBox="0 0 24 24">
    <path d="M.95 14.184L12 20.403l9.919-5.55v2.21L12 22.662l-10.484-5.96-.565.308v.77L12 24l11.05-6.218v-4.317l-.515-.309L12 19.118l-9.867-5.653v-2.21L12 16.805l11.05-6.218V6.32l-.515-.308L12 11.974 2.647 6.681 12 1.388l7.76 4.368.668-.411v-.566L12 0 .95 6.27v.72L12 13.207l9.919-5.55v2.26L12 15.52 1.516 9.56l-.565.308Z" />
  </symbol>
    <symbol id="dbt" viewBox="0 0 24 24">
    <path d="M17.9004 9.3763a8.1488 8.1488 0 0 0-3.0421-3.1206l1.7708.8385a10.2874 10.2874 0 0 1 3.74 3.0007l3.234-5.9295a2.8546 2.8546 0 0 0-.0611-2.9604C22.7566.0371 21.2112-.3409 19.9754.3327l-5.8749 3.2101a4.3612 4.3612 0 0 1-4.1761 0L4.1769.408a2.8545 2.8545 0 0 0-2.9592.0632c-1.1673.7853-1.5452 2.33-.8723 3.5655L3.55 9.9106a4.3612 4.3612 0 0 1 0 4.1772l-3.1272 5.743a2.86 2.86 0 0 0 .085 2.9974c.794 1.1438 2.3225 1.5054 3.5448.8385l6.0581-3.3049a10.2877 10.2877 0 0 1-3.0051-3.7454l-.8374-1.7708a8.148 8.148 0 0 0 3.1206 3.0421l10.5832 5.779c1.2213.666 2.7481.3055 3.5426-.8363a2.8699 2.8699 0 0 0 .0796-3.0018L17.9004 9.3763zm3.3801-7.7351c.6022 0 1.0904.4882 1.0904 1.0904s-.4882 1.0904-1.0904 1.0904-1.0904-.4882-1.0904-1.0904.4882-1.0904 1.0904-1.0904zM2.7442 3.822c-.6022 0-1.0904-.4882-1.0904-1.0904s.4882-1.0904 1.0904-1.0904 1.0904.4882 1.0904 1.0904S3.3464 3.822 2.7442 3.822zm0 18.5363c-.6022 0-1.0904-.4882-1.0904-1.0904 0-.6022.4882-1.0904 1.0904-1.0904s1.0904.4882 1.0904 1.0904c0 .6022-.4882 1.0904-1.0904 1.0904zm10.3585-11.4489c-1.2008-.0035-2.177.9672-2.1805 2.1679a2.1738 2.1738 0 0 0 .7052 1.6091c-1.4872-.2091-2.5234-1.5843-2.3142-3.0716.2091-1.4872 1.5843-2.5234 3.0716-2.3142a2.7194 2.7194 0 0 1 2.3142 2.3142 2.1623 2.1623 0 0 0-1.5963-.7054zm8.1778 11.4489c-.6022 0-1.0904-.4882-1.0904-1.0904 0-.6022.4882-1.0904 1.0904-1.0904s1.0904.4882 1.0904 1.0904c0 .6022-.4882 1.0904-1.0904 1.0904z" />
  </symbol>
    <symbol id="delta" viewBox="0 0 24 24">
    <path d="M24 13.455h-.689l-.288-.739h-1.2l-.289.739h-.644l1.233-2.96h.666zm-1.16-1.233l-.411-1.044-.411 1.044zm-4.315 1.233h.66v-2.438h.995v-.51h-2.644v.51h.989zm-3.826 0h1.927v-.511H15.36v-2.438h-.661zm-3.282-2.438h1.416v-.51h-2.077v2.948h2.121v-.511h-1.46v-.766h1.25v-.511h-1.25zm-4.981 2.438h1.038c1.072 0 1.71-.555 1.71-1.472 0-.916-.638-1.471-1.71-1.471H6.436zm.655-2.438h.383c.694 0 1.044.344 1.044.96 0 .617-.344.961-1.044.961h-.383zm-2.277 2.155a.15.15 0 0 1 .15.15.15.15 0 0 1-.15.15.15.15 0 0 1-.15-.15.15.15 0 0 1 .15-.15m0 .277a.13.13 0 0 0 .134-.127c0-.073-.056-.128-.134-.128a.126.126 0 0 0-.127.128c0 .072.055.127.127.127m-.033-.039H4.76v-.177h.067c.038 0 .055.016.055.05 0 .033-.022.044-.044.05l.055.077h-.028l-.05-.077h-.033zm0-.1h.028c.022 0 .05 0 .05-.027 0-.022-.022-.028-.039-.028h-.039zM0 13.85h4.626l-2.31-.978zm.172-.395l2.144-1.033 2.143 1.033-2.143-3.304Z" />
  </symbol>
  </defs>
  <g transform="translate(0 0)">
    <title>Python</title>
    <rect x="17" y="4" width="56" height="56" rx="12" fill="#102a3e" />
    <use href="#python" x="33" y="20" width="24" height="24" fill="#FFD43B" />
    <text x="45" y="78" text-anchor="middle">Python</text>
  </g>
  <g transform="translate(92 0)">
    <title>Prefect</title>
    <rect x="17" y="4" width="56" height="56" rx="12" fill="#102a3e" />
    <use href="#prefect" x="33" y="20" width="24" height="24" fill="#FFFFFF" />
    <text x="45" y="78" text-anchor="middle">Prefect</text>
  </g>
  <g transform="translate(184 0)">
    <title>Databricks</title>
    <rect x="17" y="4" width="56" height="56" rx="12" fill="#102a3e" />
    <use href="#databricks" x="33" y="20" width="24" height="24" fill="#FF3621" />
    <text x="45" y="78" text-anchor="middle">Databricks</text>
  </g>
  <g transform="translate(276 0)">
    <title>dbt</title>
    <rect x="17" y="4" width="56" height="56" rx="12" fill="#102a3e" />
    <use href="#dbt" x="33" y="20" width="24" height="24" fill="#FF694B" />
    <text x="45" y="78" text-anchor="middle">dbt</text>
  </g>
  <g transform="translate(368 0)">
    <title>Delta Lake</title>
    <rect x="17" y="4" width="56" height="56" rx="12" fill="#102a3e" />
    <use href="#delta" x="23" y="11" width="44" height="42" fill="#43B6D4" />
    <text x="45" y="78" text-anchor="middle">Delta Lake</text>
  </g>
</svg>
